name 900006_13.mot
datacolumns 153
datarows 4
range 0.12500000 0.15000001
endheader

                time	           pelvis_tx	           pelvis_ty	           pelvis_tz	         pelvis_tilt	         pelvis_list	     pelvis_rotation	       hip_flexion_r	     hip_adduction_r	      hip_rotation_r	        knee_angle_r	       ankle_angle_r	    subtalar_angle_r	         mtp_angle_r	       hip_flexion_l	     hip_adduction_l	      hip_rotation_l	        knee_angle_l	       ankle_angle_l	    subtalar_angle_l	         mtp_angle_l	    lumbar_extension	      lumbar_bending	     lumbar_rotation	     ground_force_vx	     ground_force_vy	     ground_force_vz	     ground_force_px	     ground_force_py	     ground_force_pz	     ground_force_vx	     ground_force_vy	     ground_force_vz	     ground_force_px	     ground_force_py	     ground_force_pz	     ground_torque_x	     ground_torque_y	     ground_torque_z	     ground_torque_x	     ground_torque_y	     ground_torque_z	    ground_marker_px	    ground_marker_py	    ground_marker_pz	    ground_marker_px	    ground_marker_py	    ground_marker_pz	    ground_marker_px	    ground_marker_py	    ground_marker_pz	    ground_marker_px	    ground_marker_py	    ground_marker_pz	    ground_marker_px	    ground_marker_py	    ground_marker_pz	    ground_marker_px	    ground_marker_py	    ground_marker_pz	    ground_marker_px	    ground_marker_py	    ground_marker_pz	    ground_marker_px	    ground_marker_py	    ground_marker_pz	    ground_marker_px	    ground_marker_py	    ground_marker_pz	    ground_marker_px	    ground_marker_py	    ground_marker_pz	    ground_marker_px	    ground_marker_py	    ground_marker_pz	    ground_marker_px	    ground_marker_py	    ground_marker_pz	    ground_marker_px	    ground_marker_py	    ground_marker_pz	    ground_marker_px	    ground_marker_py	    ground_marker_pz	    ground_marker_px	    ground_marker_py	    ground_marker_pz	    ground_marker_px	    ground_marker_py	    ground_marker_pz	    ground_marker_px	    ground_marker_py	    ground_marker_pz	    ground_marker_px	    ground_marker_py	    ground_marker_pz	    ground_marker_px	    ground_marker_py	    ground_marker_pz	    ground_marker_px	    ground_marker_py	    ground_marker_pz	    ground_marker_px	    ground_marker_py	    ground_marker_pz	    ground_marker_px	    ground_marker_py	    ground_marker_pz	    ground_marker_px	    ground_marker_py	    ground_marker_pz	    ground_marker_px	    ground_marker_py	    ground_marker_pz	    ground_marker_px	    ground_marker_py	    ground_marker_pz	    ground_marker_px	    ground_marker_py	    ground_marker_pz	    ground_marker_px	    ground_marker_py	    ground_marker_pz	    ground_marker_px	    ground_marker_py	    ground_marker_pz	    ground_marker_px	    ground_marker_py	    ground_marker_pz	    ground_marker_px	    ground_marker_py	    ground_marker_pz	    ground_marker_px	    ground_marker_py	    ground_marker_pz	    ground_marker_px	    ground_marker_py	    ground_marker_pz	    ground_marker_px	    ground_marker_py	    ground_marker_pz	    ground_marker_px	    ground_marker_py	    ground_marker_pz	    ground_marker_px	    ground_marker_py	    ground_marker_pz	    ground_marker_px	    ground_marker_py	    ground_marker_pz	    ground_marker_px	    ground_marker_py	    ground_marker_pz	
          0.12500000	          1.38752842	          0.82249296	         -0.27657473	          3.29104519	          2.50068569	          1.23466909	         -7.35731697	         -3.33268690	         -6.34294701	        -43.72082138	         -9.03403568	          0.00000000	          0.00000000	         20.05805206	          5.50224781	          1.78990495	        -20.13699722	         -1.70650232	          0.00000000	          0.00000000	         -4.46940279	         -1.80640936	         -0.42801633	          0.00000000	          0.00000000	          0.00000000	          1.83540137	          0.00000000	         -0.23817773	        -61.91008906	        458.16398870	         11.96852490	          1.48467834	          0.00000000	         -0.32555609	          0.00000000	          0.00000000	          0.00000000	          0.00000000	         -0.48080389	          0.00000000	          1.35334325	          0.75049448	         -0.28784186	          1.34633374	          0.74461633	         -0.23114753	          1.36035275	          0.75637269	         -0.34453616	          1.27885067	          0.39993414	         -0.20800082	          1.44120717	          0.41926897	         -0.32877818	          1.02544618	          0.15010890	         -0.22401851	          1.47488117	          0.06598201	         -0.32347178	          1.38752842	          0.82249296	         -0.27657473	          1.38917089	          0.81730884	         -0.16493388	          1.38588607	          0.82767713	         -0.38821557	          1.21221399	          0.84974897	         -0.24521370	          1.20982730	          0.84893137	         -0.29930943	          1.28647017	          0.39446238	         -0.14861400	          1.45789802	          0.41554311	         -0.38815677	          1.30417299	          0.39117795	         -0.27164471	          1.44411016	          0.41715920	         -0.27137089	          1.01865220	          0.15466204	         -0.18742123	          1.47026491	          0.06481525	         -0.35965985	          1.02415586	          0.14510661	         -0.25719562	          1.46861506	          0.06566241	         -0.29031515	          1.37732005	          1.17406094	         -0.30273852	          1.38643169	          1.07236230	         -0.30682728	          1.26859164	          1.24395156	         -0.29296330	          1.05841839	          0.06889103	         -0.22011095	          1.56633115	          0.04768658	         -0.32227814	          1.43859172	          0.52693677	         -0.17153597	          1.51184189	          0.59144783	         -0.39860511	          1.38461065	          0.56951988	         -0.14522971	          1.46782672	          0.62787735	         -0.33835050	          1.36874020	          0.51235658	         -0.14876674	          1.47797167	          0.57121086	         -0.32868692	          1.19242501	          0.14486647	         -0.18483543	          1.46749282	          0.16534734	         -0.45056632	          1.12696457	          0.18982656	         -0.20767346	          1.46370053	          0.15790899	         -0.37081394	          1.38058138	          1.17351985	         -0.24670245	          1.37977231	          1.17508578	         -0.35265434	
          0.13333334	          1.39715064	          0.82387042	         -0.27772388	          3.41109276	          2.49870539	          1.37148929	         -6.18232107	         -3.62979889	         -6.73688984	        -45.78730774	        -11.40909958	          0.00000000	          0.00000000	         19.35185242	          5.54929066	          1.89811099	        -20.52162170	         -0.83761030	          0.00000000	          0.00000000	         -4.68872881	         -1.96288669	         -0.14203092	          0.00000000	          0.00000000	          0.00000000	          1.83761768	          0.00000000	         -0.23823407	        -59.40686216	        459.46925814	         15.10061783	          1.48538306	          0.00000000	         -0.32594220	          0.00000000	          0.00000000	          0.00000000	          0.00000000	         -0.52178815	          0.00000000	          1.36309505	          0.75179887	         -0.28888148	          1.35622692	          0.74589401	         -0.23217265	          1.36996317	          0.75770372	         -0.34559032	          1.29764497	          0.39932236	         -0.20739560	          1.44718373	          0.42031473	         -0.33011419	          1.04074252	          0.15398242	         -0.22385973	          1.47515202	          0.06585140	         -0.32370555	          1.39715064	          0.82387042	         -0.27772388	          1.39906800	          0.81865489	         -0.16610903	          1.39523327	          0.82908595	         -0.38933873	          1.22198546	          0.85065478	         -0.24529640	          1.21949983	          0.84989333	         -0.29924682	          1.30394101	          0.39448038	         -0.14804433	          1.46402752	          0.41572618	         -0.38933802	          1.32347620	          0.39158449	         -0.27219400	          1.45015788	          0.41772154	         -0.27379358	          1.03349531	          0.15913732	         -0.18742958	          1.47055972	          0.06466718	         -0.35989615	          1.03968465	          0.14811155	         -0.25689116	          1.46851218	          0.06591345	         -0.29058340	          1.38667452	          1.17537045	         -0.30364919	          1.39560378	          1.07364881	         -0.30756223	          1.27825427	          1.24536991	         -0.29384732	          1.06930447	          0.07105912	         -0.21978550	          1.56643915	          0.04741349	         -0.32250461	          1.45355880	          0.52976954	         -0.17071885	          1.51996398	          0.59141439	         -0.39999822	          1.39887309	          0.57119441	         -0.14459737	          1.47664797	          0.62835222	         -0.34009013	          1.38447249	          0.51382631	         -0.14845739	          1.48605430	          0.57147396	         -0.33060086	          1.20669889	          0.14653563	         -0.18221906	          1.46959591	          0.16479398	         -0.45110497	          1.14239943	          0.19177815	         -0.20661417	          1.46522665	          0.15809174	         -0.37142867	          1.39035594	          1.17496133	         -0.24784866	          1.38875353	          1.17626965	         -0.35337406	
          0.14166667	          1.40661383	          0.82522756	         -0.27877051	          3.51160145	          2.47307587	          1.45240033	         -4.92518330	         -3.86544704	         -7.14079237	        -47.74839783	        -13.19804859	          0.00000000	          0.00000000	         18.62480164	          5.53179407	          1.84180939	        -20.79941940	         -0.00795741	          0.00000000	          0.00000000	         -4.89875317	         -2.22683096	          0.00372388	          0.00000000	          0.00000000	          0.00000000	          1.84025928	          0.00000000	         -0.23832747	        -56.21416497	        459.29573941	         18.01295988	          1.48633203	          0.00000000	         -0.32627539	          0.00000000	          0.00000000	          0.00000000	          0.00000000	         -0.53376685	          0.00000000	          1.37267864	          0.75305903	         -0.28979242	          1.36590576	          0.74716240	         -0.23307124	          1.37945151	          0.75895560	         -0.34651357	          1.31446671	          0.40002429	         -0.20697194	          1.45209324	          0.42043754	         -0.33151793	          1.05694711	          0.15748964	         -0.22378072	          1.47538722	          0.06576311	         -0.32394329	          1.40661383	          0.82522756	         -0.27877051	          1.40870297	          0.82004380	         -0.16720338	          1.40452480	          0.83041131	         -0.39033765	          1.23151541	          0.85161746	         -0.24548864	          1.22912943	          0.85090071	         -0.29927653	          1.32148683	          0.39477152	         -0.14761865	          1.46961772	          0.41584617	         -0.39052516	          1.34143758	          0.39372638	         -0.27476016	          1.45508015	          0.41913518	         -0.27418944	          1.04930282	          0.16317910	         -0.18751167	          1.47073317	          0.06455410	         -0.36012518	          1.05572045	          0.15018654	         -0.25654092	          1.46866024	          0.06646296	         -0.29083323	          1.39598060	          1.17657256	         -0.30459598	          1.40471995	          1.07481790	         -0.30805162	          1.28790426	          1.24669123	         -0.29458398	          1.08203053	          0.07349753	         -0.21912822	          1.56647956	          0.04722907	         -0.32274270	          1.46827006	          0.53287792	         -0.16981357	          1.52768505	          0.59107929	         -0.40160853	          1.41236019	          0.57271892	         -0.14391053	          1.48535526	          0.62859958	         -0.34245938	          1.39892101	          0.51536715	         -0.14867109	          1.49373925	          0.57170135	         -0.33242515	          1.22186327	          0.14829692	         -0.17996943	          1.47124732	          0.16425878	         -0.45159501	          1.15811753	          0.19384937	         -0.20630634	          1.46678007	          0.15804183	         -0.37246126	          1.39989853	          1.17642820	         -0.24880444	          1.39784968	          1.17722642	         -0.35433882	
          0.15000001	          1.41594625	          0.82657003	         -0.27973610	          3.59243679	          2.42746925	          1.47852421	         -3.60101700	         -4.04715252	         -7.51745462	        -49.59472275	        -14.25402737	          0.00000000	          0.00000000	         17.87931442	          5.47273397	          1.64530182	        -20.97907066	          0.77575606	          0.00000000	          0.00000000	         -5.09669018	         -2.45643353	          0.04526343	          0.00000000	          0.00000000	          0.00000000	          1.84345728	          0.00000000	         -0.23853415	        -52.74352430	        457.30936775	         20.05762542	          1.48742224	          0.00000000	         -0.32649039	          0.00000000	          0.00000000	          0.00000000	          0.00000000	         -0.52800952	          0.00000000	          1.38207626	          0.75428939	         -0.29061335	          1.37535024	          0.74842721	         -0.23388305	          1.38880217	          0.76015162	         -0.34734365	          1.32979047	          0.40058562	         -0.20671162	          1.45759034	          0.42076218	         -0.33278275	          1.07387817	          0.16064079	         -0.22378317	          1.47560477	          0.06569530	         -0.32415524	          1.41594625	          0.82657003	         -0.27973610	          1.41810489	          0.82147253	         -0.16822781	          1.41378772	          0.83166760	         -0.39124441	          1.24085462	          0.85264057	         -0.24579205	          1.23865449	          0.85197353	         -0.29946765	          1.33907378	          0.39538318	         -0.14731818	          1.47474587	          0.41590458	         -0.39162824	          1.35727167	          0.39411914	         -0.27368578	          1.46139336	          0.41972283	         -0.27583963	          1.06590044	          0.16677493	         -0.18765871	          1.47082198	          0.06446455	         -0.36031961	          1.07253766	          0.15234303	         -0.25634879	          1.46884680	          0.06687114	         -0.29103416	          1.40521348	          1.17779708	         -0.30531004	          1.41375160	          1.07601035	         -0.30829236	          1.29734468	          1.24813533	         -0.29551134	          1.09665072	          0.07613844	         -0.21806549	          1.56648159	          0.04708914	         -0.32295907	          1.48272407	          0.53627044	         -0.16891985	          1.53502846	          0.59045815	         -0.40332085	          1.42538214	          0.57464862	         -0.14346313	          1.49367762	          0.62857538	         -0.34465539	          1.41261506	          0.51713359	         -0.14796662	          1.50144851	          0.57186568	         -0.33458182	          1.23786330	          0.15014558	         -0.17814122	          1.47253931	          0.16375364	         -0.45200691	          1.17471826	          0.19634198	         -0.20628245	          1.46811569	          0.15778120	         -0.37335074	          1.40921676	          1.17791176	         -0.24949513	          1.40700746	          1.17820978	         -0.35508749	
